<?xml version="1.0" standalone="no"?>
<!DOCTYPE svg PUBLIC "-//W3C//DTD SVG 20010904//EN"
 "http://www.w3.org/TR/2001/REC-SVG-20010904/DTD/svg10.dtd">
<svg version="1.0" xmlns="http://www.w3.org/2000/svg"
 width="47.000000pt" height="47.000000pt" viewBox="0 0 47.000000 47.000000"
 preserveAspectRatio="xMidYMid meet">

<g transform="translate(0.000000,47.000000) scale(0.100000,-0.100000)"
fill="#000000" stroke="none">
<path d="M189 401 c-28 -28 -37 -44 -32 -57 4 -12 3 -15 -5 -10 -8 5 -10 1 -5
-10 4 -12 3 -15 -5 -10 -8 5 -10 1 -5 -10 4 -11 3 -15 -5 -10 -17 11 -35 -71
-29 -137 3 -33 1 -55 -4 -51 -18 11 -8 -11 18 -38 31 -33 48 -37 33 -8 -8 16
-8 20 3 20 8 0 29 3 47 7 22 4 31 3 27 -4 -4 -6 9 -17 30 -26 40 -15 81 -8
103 18 8 10 19 11 46 3 38 -10 50 -6 39 11 -3 6 -19 11 -36 11 -20 0 -29 5
-29 16 0 21 -37 101 -49 106 -6 1 -12 14 -15 28 -7 38 -22 84 -34 106 -6 10
-16 34 -22 52 -7 17 -17 32 -22 32 -6 0 -28 -18 -49 -39z m46 -21 c14 -27 14
-30 -3 -40 -16 -11 -16 -11 0 -6 20 6 43 -27 34 -50 -3 -8 -1 -14 4 -14 5 0 8
-9 7 -20 -1 -12 -7 -18 -14 -16 -6 3 -13 0 -15 -5 -2 -6 -11 -11 -20 -12 -9
-2 -22 -8 -29 -13 -8 -6 -20 -14 -27 -19 -23 -12 4 31 31 50 l22 17 -25 -7
-25 -7 25 26 c19 21 21 26 6 20 -17 -6 -17 -5 -6 17 10 20 10 22 -1 12 -23
-22 -30 -14 -12 15 l17 27 -21 -18 c-19 -16 -21 -17 -19 -2 1 14 44 73 53 75
1 0 9 -13 18 -30z m-61 -99 c3 -4 -8 -41 -23 -82 l-29 -74 -7 49 c-7 42 -5 51
11 63 10 7 12 13 6 13 -7 0 -12 8 -12 18 0 13 2 14 9 4 7 -11 9 -11 14 2 7 17
23 21 31 7z m142 -96 c3 -14 10 -25 15 -25 14 0 11 -56 -4 -68 -21 -18 -79
-19 -85 -3 -3 10 0 12 12 8 10 -4 15 -3 11 3 -3 6 0 10 7 10 9 0 9 3 -2 10
-12 8 -10 10 10 11 l25 2 -24 4 c-19 4 -21 7 -10 14 11 7 10 9 -4 9 -11 0 -15
5 -11 11 4 8 -1 9 -17 5 l-24 -7 24 20 c33 30 69 27 77 -4z m-80 -40 c12 -30
-32 -59 -69 -46 -17 6 -16 9 7 34 28 30 54 35 62 12z"/>
</g>
</svg>
